<svg width="106" height="106" viewBox="0 0 106 106" fill="none" xmlns="http://www.w3.org/2000/svg">
<circle cx="53" cy="53" r="53" fill="white"/>
<path d="M26.5195 53.153L34.8271 49.5185V40.1725L44.1731 45.3647L52.4806 41.7301L34.8271 31.3457L26.5195 35.4995V53.153Z" fill="black"/>
<path d="M79.999 35.4998L72.7299 31.8652L63.3839 37.0574L69.6146 40.1728L26 60.4224V70.8068L32.7499 73.9222L42.6151 69.7684L36.3844 66.1339L79.999 46.4034V35.4998Z" fill="black"/>
<path d="M80.0001 69.7684V53.1533L72.2118 56.2686V65.6146L62.3466 60.9416L54.0391 65.6146L72.2118 74.4414L80.0001 69.7684Z" fill="black"/>
<path d="M53.5193 74.9607L48.8463 72.8838L40.0195 77.0376L53.5193 84.3067L67.019 77.0376L59.2307 72.8838L53.5193 74.9607Z" fill="black"/>
<path d="M53.5193 22L40.0195 28.7499L48.3271 33.9421L53.5193 31.346L57.6731 33.9421L67.019 29.7883L53.5193 22Z" fill="black"/>
</svg>
